<svg>
	<symbol id="monitor" x="10.5" y="10.5" width="29" height="29" viewBox="0 0 29 29" fill="none" xmlns="http://www.w3.org/2000/svg">
		<g>
		<path d="M5.75 21.4444H4.5C3.83696 21.4444 3.20107 21.1518 2.73223 20.6309C2.26339 20.1099 2 19.4034 2 18.6667V4.77778C2 4.04107 2.26339 3.33453 2.73223 2.81359C3.20107 2.29266 3.83696 2 4.5 2H24.5C25.163 2 25.7989 2.29266 26.2678 2.81359C26.7366 3.33453 27 4.04107 27 4.77778V18.6667C27 19.4034 26.7366 20.1099 26.2678 20.6309C25.7989 21.1518 25.163 21.4444 24.5 21.4444H23.25" stroke-width="3" stroke-linecap="round" stroke-linejoin="round"/>
		<path d="M14.5 18.6667L20.75 27.0001H8.25L14.5 18.6667Z" stroke-width="3" stroke-linecap="round" stroke-linejoin="round"/>
		</g>
	</symbol>

	<symbol id="anchor" x="10.5" y="10.5" width="29" height="29" viewBox="0 0 29 29" fill="none" xmlns="http://www.w3.org/2000/svg">
		<path d="M14.5 9.5C16.5711 9.5 18.25 7.82107 18.25 5.75C18.25 3.67893 16.5711 2 14.5 2C12.4289 2 10.75 3.67893 10.75 5.75C10.75 7.82107 12.4289 9.5 14.5 9.5Z" stroke-width="3" stroke-linecap="round" stroke-linejoin="round"/>
		<path d="M14.5 27V9.5" stroke-width="3" stroke-linecap="round" stroke-linejoin="round"/>
		<path d="M5.75 14.5H2C2 17.8152 3.31696 20.9946 5.66117 23.3388C8.00537 25.683 11.1848 27 14.5 27C17.8152 27 20.9946 25.683 23.3388 23.3388C25.683 20.9946 27 17.8152 27 14.5H23.25" stroke-width="3" stroke-linecap="round" stroke-linejoin="round"/>
	</symbol>

	<symbol id="eye" x="9.5" y="13" width="31" height="24" viewBox="0 0 31 24" fill="none" xmlns="http://www.w3.org/2000/svg">
		<path d="M2 12C2 12 6.90909 2 15.5 2C24.0909 2 29 12 29 12C29 12 24.0909 22 15.5 22C6.90909 22 2 12 2 12Z"  stroke-width="3" stroke-linecap="round" stroke-linejoin="round"/>
		<path d="M15.5 15.75C17.5334 15.75 19.1818 14.0711 19.1818 12C19.1818 9.92893 17.5334 8.25 15.5 8.25C13.4666 8.25 11.8182 9.92893 11.8182 12C11.8182 14.0711 13.4666 15.75 15.5 15.75Z" stroke-width="3" stroke-linecap="round" stroke-linejoin="round"/>
	</symbol>

	<symbol id="arrow-portfolio" width="18" height="18" viewBox="0 0 18 18" fill="none" xmlns="http://www.w3.org/2000/svg">
		<path d="M1 9H17" stroke-width="2" stroke-linecap="round" stroke-linejoin="round"/>
		<path d="M9 1L17 9L9 17" stroke-width="2" stroke-linecap="round" stroke-linejoin="round"/>
	</symbol>

	<symbol id="arrow-left-testimonials" width="25" height="23" viewBox="0 0 25 23" xmlns="http://www.w3.org/2000/svg">
		<path d="M11 1.45801L1 11.458L11 21.458" stroke-width="2" stroke-linecap="round" stroke-linejoin="round"/>
		<path d="M1 11.458H23.8571" stroke-width="2" stroke-linecap="round" stroke-linejoin="round"/>
	</symbol>

	<symbol id="arrow-right-testimonials" width="25" height="23" viewBox="0 0 25 23" xmlns="http://www.w3.org/2000/svg">
		<path d="M13.8571 21.458L23.8571 11.458L13.8571 1.45801" stroke-width="2" stroke-linecap="round" stroke-linejoin="round"/>
		<path d="M23.8571 11.458L1 11.458" stroke-width="2" stroke-linecap="round" stroke-linejoin="round"/>
	</symbol>

	<symbol id="arrow-left-blog" x="12.5" y="13.5" width="25" height="23" viewBox="0 0 25 23" xmlns="http://www.w3.org/2000/svg">
		<path d="M11 1.45801L1 11.458L11 21.458" stroke-width="2" stroke-linecap="round" stroke-linejoin="round"/>
		<path d="M1 11.458H23.8571" stroke-width="2" stroke-linecap="round" stroke-linejoin="round"/>
	</symbol>
									
	<symbol id="arrow-right-blog" x="12.5" y="13.5" width="25" height="23" viewBox="0 0 25 23" xmlns="http://www.w3.org/2000/svg">
		<path d="M13.8571 21.458L23.8571 11.458L13.8571 1.45801" stroke-width="2" stroke-linecap="round" stroke-linejoin="round"/>
		<path d="M23.8571 11.458L1 11.458" stroke-width="2" stroke-linecap="round" stroke-linejoin="round"/>
	</symbol>

	<symbol id="facebook-icon" x="8" y="2.5" width="16" height="30" viewBox="0 0 16 30" xmlns="http://www.w3.org/2000/svg">
		<path d="M12.9963 4.98125H15.735V0.21125C15.2625 0.14625 13.6375 0 11.745 0C7.79626 0 5.09127 2.48375 5.09127 7.04875V11.25H0.733765V16.5825H5.09127V30H10.4338V16.5837H14.615L15.2788 11.2513H10.4325V7.5775C10.4338 6.03625 10.8488 4.98125 12.9963 4.98125Z"/>
	</symbol>

	<symbol id="instagram-icon" width="34" height="34" viewBox="0 0 34 34" xmlns="http://www.w3.org/2000/svg">
		<path d="M24.5 2H9.5C5.35786 2 2 5.35786 2 9.5V24.5C2 28.6421 5.35786 32 9.5 32H24.5C28.6421 32 32 28.6421 32 24.5V9.5C32 5.35786 28.6421 2 24.5 2Z" stroke-width="3" stroke-linecap="round" stroke-linejoin="round"/>
		<path d="M23 16.0542C23.1851 17.3026 22.9719 18.5776 22.3906 19.6978C21.8094 20.818 20.8897 21.7264 19.7624 22.2937C18.6351 22.8611 17.3577 23.0586 16.1117 22.8581C14.8657 22.6576 13.7146 22.0694 12.8222 21.177C11.9299 20.2846 11.3416 19.1335 11.1411 17.8876C10.9406 16.6416 11.1381 15.3641 11.7055 14.2368C12.2729 13.1095 13.1813 12.1898 14.3015 11.6086C15.4217 11.0273 16.6966 10.8141 17.945 10.9992C19.2184 11.1881 20.3973 11.7814 21.3075 12.6917C22.2178 13.602 22.8112 14.7808 23 16.0542Z" stroke-width="3" stroke-linecap="round" stroke-linejoin="round"/>
		<path d="M25.25 8.75H25.265" stroke-width="3" stroke-linecap="round" stroke-linejoin="round"/>
	</symbol>							

	<symbol id="twitter-icon" width="35" height="30" viewBox="0 0 35 30" xmlns="http://www.w3.org/2000/svg">
		<path d="M35 0.0168121C33.4765 1.14614 31.7897 2.0099 30.0045 2.57482C29.0464 1.41704 27.773 0.596446 26.3566 0.224004C24.9403 -0.148438 23.4492 -0.0547524 22.0851 0.492389C20.7211 1.03953 19.5498 2.01373 18.7297 3.28323C17.9097 4.55272 17.4804 6.05627 17.5 7.59051V9.26241C14.7042 9.33859 11.9338 8.68696 9.4357 7.36555C6.93755 6.04414 4.78914 4.09396 3.18182 1.68871C3.18182 1.68871 -3.18182 16.7358 11.1364 23.4234C7.85993 25.7606 3.95684 26.9326 0 26.7672C14.3182 35.1267 31.8182 26.7672 31.8182 7.54035C31.8167 7.07465 31.7741 6.6101 31.6909 6.15268C33.3146 4.4699 34.4604 2.34529 35 0.0168121Z"/>
	</symbol>

	<symbol id="linkedin-icon" width="30" height="30" viewBox="0 0 30 30" xmlns="http://www.w3.org/2000/svg">
		<path d="M21 9.47388C23.3869 9.47388 25.6761 10.472 27.364 12.2487C29.0518 14.0253 30 16.435 30 18.9476V30.0002H24V18.9476C24 18.11 23.6839 17.3068 23.1213 16.7146C22.5587 16.1224 21.7956 15.7897 21 15.7897C20.2044 15.7897 19.4413 16.1224 18.8787 16.7146C18.3161 17.3068 18 18.11 18 18.9476V30.0002H12V18.9476C12 16.435 12.9482 14.0253 14.636 12.2487C16.3239 10.472 18.6131 9.47388 21 9.47388Z"/>
		<path d="M6 11.053H0V30.0003H6V11.053Z"/>
		<path d="M3 6.31579C4.65685 6.31579 6 4.90195 6 3.15789C6 1.41384 4.65685 0 3 0C1.34315 0 0 1.41384 0 3.15789C0 4.90195 1.34315 6.31579 3 6.31579Z"/>
	</symbol>	
</svg>
